<svg width="40" height="40" viewBox="0 0 40 40" fill="none" xmlns="http://www.w3.org/2000/svg">
<g filter="url(#filter0_d_46_199)">
<path d="M14.4751 10.3333C14.6519 10.202 14.8531 10.1065 15.0673 10.0521C15.2814 9.99782 15.5042 9.9858 15.7231 10.0168C15.9419 10.0477 16.1524 10.121 16.3426 10.2326C16.5328 10.3441 16.699 10.4916 16.8316 10.6667C16.9643 10.8418 17.0608 11.0411 17.1156 11.2531C17.1705 11.4651 17.1826 11.6858 17.1514 11.9024C17.1201 12.1191 17.046 12.3276 16.9334 12.5159C16.8208 12.7043 16.6718 12.8688 16.495 13.0001C13.8624 14.9552 12.3542 16.857 11.4907 18.517C12.6763 18.2148 13.9276 18.2859 15.0705 18.7203C16.2135 19.1547 17.1914 19.9309 17.8683 20.9411C18.5452 21.9512 18.8875 23.145 18.8476 24.3567C18.8077 25.5683 18.3875 26.7375 17.6456 27.7018C16.9036 28.6661 15.8767 29.3775 14.7075 29.7372C13.5384 30.097 12.2851 30.0871 11.1219 29.709C9.95867 29.3309 8.9433 28.6034 8.21692 27.6276C7.49053 26.6517 7.08922 25.476 7.06876 24.2639C6.85307 22.2171 7.14664 20.149 7.92385 18.2403C8.92875 15.7302 10.8931 12.9935 14.4751 10.3333ZM29.6244 10.3333C29.8012 10.202 30.0024 10.1065 30.2166 10.0521C30.4307 9.99782 30.6535 9.9858 30.8724 10.0168C31.0912 10.0477 31.3017 10.121 31.4919 10.2326C31.6821 10.3441 31.8483 10.4916 31.9809 10.6667C32.1135 10.8418 32.21 11.0411 32.2649 11.2531C32.3198 11.4651 32.3319 11.6858 32.3007 11.9024C32.2694 12.1191 32.1953 12.3276 32.0827 12.5159C31.9701 12.7043 31.8211 12.8688 31.6443 13.0001C29.0117 14.9552 27.5035 16.857 26.64 18.517C27.8256 18.2148 29.0768 18.2859 30.2198 18.7203C31.3628 19.1547 32.3407 19.9309 33.0176 20.9411C33.6945 21.9512 34.0368 23.145 33.9969 24.3567C33.9569 25.5683 33.5368 26.7375 32.7948 27.7018C32.0529 28.6661 31.026 29.3775 29.8568 29.7372C28.6877 30.097 27.4344 30.0871 26.2712 29.709C25.108 29.3309 24.0926 28.6034 23.3662 27.6276C22.6398 26.6517 22.2385 25.476 22.218 24.2639C22.0024 22.2171 22.2959 20.149 23.0731 18.2403C24.0797 15.7302 26.0424 12.9935 29.6244 10.3333Z" fill="#3EA645"/>
</g>
<defs>
<filter id="filter0_d_46_199" x="3" y="10" width="35" height="28" filterUnits="userSpaceOnUse" color-interpolation-filters="sRGB">
<feFlood flood-opacity="0" result="BackgroundImageFix"/>
<feColorMatrix in="SourceAlpha" type="matrix" values="0 0 0 0 0 0 0 0 0 0 0 0 0 0 0 0 0 0 127 0" result="hardAlpha"/>
<feOffset dy="4"/>
<feGaussianBlur stdDeviation="2"/>
<feComposite in2="hardAlpha" operator="out"/>
<feColorMatrix type="matrix" values="0 0 0 0 0 0 0 0 0 0 0 0 0 0 0 0 0 0 0.25 0"/>
<feBlend mode="normal" in2="BackgroundImageFix" result="effect1_dropShadow_46_199"/>
<feBlend mode="normal" in="SourceGraphic" in2="effect1_dropShadow_46_199" result="shape"/>
</filter>
</defs>
</svg>
